<svg xmlns="http://www.w3.org/2000/svg" viewBox="0 0 100 100">
  <path fill="#5c6166" d="M.3 77.6h.4l8-5.6c.2 0 .3-.2.3-.4v-49h40.2l-9 6.3c-.2 0-.3.2 0 .4l4.5 6.6.3.3h.3L71 18.6c.2 0 .2-.2.2-.4 0 0 0-.3-.2-.4L45.3 0H45s-.3 0-.3.2L40 6.8c0 .3 0 .6.2.7l9 6.2H.5c-.3 0-.5.2-.5.5v63c0 .2 0 .3.3.4zm99.4-55.2h-.4l-8 5.6c-.2 0-.3.2-.3.4v49H50.8l9-6.3c.2 0 .3-.2 0-.4L55.3 64l-.3-.3h-.3L29 81.4c-.2 0-.2.2-.2.4 0 0 0 .3.2.4L54.7 100h.3s.3 0 .3-.2l4.6-6.6c0-.3 0-.6-.4-.7l-9-6.2h48.7c.3 0 .5-.2.5-.5v-63c0-.2 0-.3-.4-.4z"/>
</svg>
