<svg xmlns="http://www.w3.org/2000/svg" viewBox="0 0 512 512">
<path fill="#4078c0" d="M0,512h512V106.6H0V512z M220.1,159.4l15.1,15.1l-28.1,28.1h155.6c35.3,0,64,28.7,64,64v96h-21.3v-96   c0-23.5-19.1-42.7-42.7-42.7H207.1l28.1,28.1l-15.1,15.1l-53.9-53.9L220.1,159.4z M85.3,256h21.3v96c0,23.5,19.1,42.7,42.7,42.7   h155.6l-28.1-28.1l15.1-15.1l53.9,53.9l-53.9,53.9l-15.1-15.1l28.1-28.1H149.3c-35.3,0-64-28.7-64-64V256z"/>
<path fill="#4078c0" d="M0,0v85.3h512V0H0z M309.3,53.3h-256V32h256V53.3z M384,53.3h-21.3V32H384V53.3z M426.7,53.3h-21.3V32h21.3V53.3z M469.3,53.3H448V32h21.3V53.3z"/>
</svg> 
